HIERARCHY
ROOT Hips
{
	OFFSET 0.000000 0.000000 0.000000
	CHANNELS 6 Xposition Yposition Zposition Zrotation Yrotation Xrotation 
	JOINT LeftUpLeg_virtual
	{
		OFFSET 0.000000 0.000000 0.000000
		CHANNELS 3 Zrotation Yrotation Xrotation
		JOINT LeftUpLeg
		{
			OFFSET 10.205400 -3.823500 0.155100
			CHANNELS 3 Zrotation Yrotation Xrotation
			JOINT LeftLeg
			{
				OFFSET 0.708757 -12.982077 0.567790
				CHANNELS 3 Zrotation Yrotation Xrotation
				JOINT LeftFoot
				{
					OFFSET -0.708756 -10.717838 -2.184338
					CHANNELS 3 Zrotation Yrotation Xrotation
					JOINT LeftToeBase
					{
						OFFSET 0.108149 -7.191104 7.560241
						CHANNELS 3 Zrotation Yrotation Xrotation
						End Site
						{
							OFFSET 0.000000 0.000000 0.000000
						}
					}
				}
			}
		}
	}
	JOINT RightUpLeg_virtual
	{
		OFFSET 0.000000 0.000000 0.000000
		CHANNELS 3 Zrotation Yrotation Xrotation
		JOINT RightUpLeg
		{
			OFFSET -10.205400 -3.823500 0.005500
			CHANNELS 3 Zrotation Yrotation Xrotation
			JOINT RightLeg
			{
				OFFSET -0.708756 -12.982134 0.610632
				CHANNELS 3 Zrotation Yrotation Xrotation
				JOINT RightFoot
				{
					OFFSET 0.708754 -10.717769 -1.945823
					CHANNELS 3 Zrotation Yrotation Xrotation
					JOINT RightToeBase
					{
						OFFSET -0.108140 -7.191069 7.372968
						CHANNELS 3 Zrotation Yrotation Xrotation
						End Site
						{
							OFFSET 0.000000 0.000000 0.000000
						}
					}
				}
			}
		}
	}
	JOINT Spine_virtual
	{
		OFFSET 0.000000 0.000000 0.000000
		CHANNELS 3 Zrotation Yrotation Xrotation
		JOINT Spine
		{
			OFFSET 0.000000 6.876099 0.125700
			CHANNELS 3 Zrotation Yrotation Xrotation
			JOINT Spine1
			{
				OFFSET 0.000000 8.022060 0.146608
				CHANNELS 3 Zrotation Yrotation Xrotation
				JOINT Spine2
				{
					OFFSET 0.000000 9.168068 0.167552
					CHANNELS 3 Zrotation Yrotation Xrotation
					JOINT Neck_virtual
					{
						OFFSET 0.000000 0.000000 0.000000
						CHANNELS 3 Zrotation Yrotation Xrotation
						JOINT Neck
						{
							OFFSET 0.000000 10.314075 0.188496
							CHANNELS 3 Zrotation Yrotation Xrotation
							JOINT Head
							{
								OFFSET 0.000000 7.643700 -2.377400
								CHANNELS 3 Zrotation Yrotation Xrotation
								End Site
								{
									OFFSET 0.000000 0.000000 0.000000
								}
							}
						}
					}
					JOINT LeftShoulder_virtual
					{
						OFFSET 0.000000 0.000000 0.000000
						CHANNELS 3 Zrotation Yrotation Xrotation
						JOINT LeftShoulder
						{
							OFFSET 4.392200 8.824978 0.174984
							CHANNELS 3 Zrotation Yrotation Xrotation
							JOINT LeftArm
							{
								OFFSET 8.771219 -2.981674 -0.026999
								CHANNELS 3 Zrotation Yrotation Xrotation
								JOINT LeftForeArm
								{
									OFFSET 8.512804 0.000000 -0.000000
									CHANNELS 3 Zrotation Yrotation Xrotation
									JOINT LeftHand
									{
										OFFSET 18.484802 0.000000 -0.000000
										CHANNELS 3 Zrotation Yrotation Xrotation
										End Site
										{
											OFFSET 0.000000 0.000000 0.000000
										}
									}
								}
							}
						}
					}
					JOINT RightShoulder_virtual
					{
						OFFSET 0.000000 0.000000 0.000000
						CHANNELS 3 Zrotation Yrotation Xrotation
						JOINT RightShoulder
						{
							OFFSET -4.392200 8.824993 0.141379
							CHANNELS 3 Zrotation Yrotation Xrotation
							JOINT RightArm
							{
								OFFSET -8.771282 -2.981682 -0.094208
								CHANNELS 3 Zrotation Yrotation Xrotation
								JOINT RightForeArm
								{
									OFFSET -8.494598 0.000000 0.000000
									CHANNELS 3 Zrotation Yrotation Xrotation
									JOINT RightHand
									{
										OFFSET -18.483803 0.000000 0.000001
										CHANNELS 3 Zrotation Yrotation Xrotation
										End Site
										{
											OFFSET 0.000000 0.000000 0.000000
										}
									}
								}
							}
						}
					}
				}
			}
		}
	}
}
MOTION
Frames: 4
Frame Time: 0.033333
8.063741 38.316372 -53.647301 -179.430422 19.703462 -179.715309 -2.938626 -3.123443 11.553100 -7.667313 6.719002 -30.448673 7.605102 13.370382 11.746981 -9.991845 -3.896596 18.167403 0.000000 0.000000 0.000000 4.847360 -1.127660 9.180675 -4.941888 -4.006298 -23.698175 -8.756612 2.384665 16.023047 11.783518 9.115672 25.473061 0.000000 0.000000 0.000000 0.984497 1.722576 -0.359611 -7.831214 -0.833578 -7.563389 -3.287919 -2.526899 17.795549 -0.065808 -0.010548 -0.004100 -3.509437 -0.461936 20.461331 -10.550724 -14.952146 5.865099 0.000000 0.000000 0.000000 -1.713824 0.046062 17.505570 -0.293159 -11.644926 0.218871 -49.337397 9.928354 -4.459137 4.538187 -49.352140 0.497524 0.000000 0.000000 0.000000 -5.597400 1.453089 16.885527 26.588536 6.928451 -4.036578 57.789268 -23.552741 21.345774 -15.830746 42.806650 -3.216038 0.000000 0.000000 0.000000 
8.217261 38.246361 -53.194439 -179.551111 18.759427 -179.839099 -3.000039 -3.114587 11.504998 -7.449910 6.547845 -30.842392 7.575450 13.235386 10.592886 -10.714694 -3.698001 19.689214 0.000000 0.000000 0.000000 4.802150 -1.311366 9.562218 -4.539252 -5.020382 -23.727722 -8.229494 2.442342 18.330218 11.196246 9.910939 24.536191 0.000000 0.000000 0.000000 1.036941 1.709026 -0.111914 -7.874336 -1.137050 -7.455185 -3.238623 -2.493323 18.046862 -0.041392 0.011013 -0.026976 -3.479518 -0.568869 20.564202 -11.038118 -14.761895 5.729190 0.000000 0.000000 0.000000 -1.668689 0.020694 17.606201 -0.124725 -11.818124 0.186579 -49.925500 10.484155 -5.728553 4.478296 -48.527493 0.668686 0.000000 0.000000 0.000000 -5.605981 1.318845 16.993741 26.662547 6.828363 -4.023908 57.525759 -22.629950 22.476083 -16.053969 43.430618 -3.210336 0.000000 0.000000 0.000000 
8.391937 38.142422 -52.708832 -179.514952 17.854026 -179.809402 -2.881198 -3.008782 11.198636 -7.111208 6.328095 -31.214374 7.647695 12.838929 9.516516 -11.250129 -3.542467 20.960428 0.000000 0.000000 0.000000 4.802083 -1.346218 9.624243 -3.529209 -5.948152 -23.979088 -7.814545 2.563927 21.546622 10.687225 10.803312 23.485124 0.000000 0.000000 0.000000 1.194551 1.632574 -0.142233 -7.850526 -1.450264 -7.344465 -3.229808 -2.480896 18.345209 -0.082651 -0.010241 -0.022966 -3.362042 -0.564971 20.741990 -11.438756 -14.406787 5.566410 0.000000 0.000000 0.000000 -1.586034 0.006916 17.679397 0.052233 -11.975855 0.154823 -50.380145 10.731218 -6.723983 4.266208 -47.524490 1.005857 0.000000 0.000000 0.000000 -5.507499 1.384752 17.046817 26.789353 6.666437 -3.978382 57.320662 -21.560776 23.238882 -16.309645 44.249203 -3.357884 0.000000 0.000000 0.000000 
8.606176 38.029499 -52.204098 -179.744173 17.016013 -179.902443 -3.143071 -2.949001 10.742475 -6.709716 6.101240 -31.534136 7.478840 11.337866 8.814867 -10.955294 -3.524322 21.526200 0.000000 0.000000 0.000000 4.444828 -1.395986 9.521203 -2.133428 -6.402626 -24.252619 -7.501271 2.724673 25.629445 10.201706 11.617020 22.213828 0.000000 0.000000 0.000000 1.006582 1.512075 -0.197689 -7.814703 -1.660660 -7.210089 -3.180555 -2.448057 18.645418 -0.038087 0.031249 -0.009916 -3.280725 -0.597518 20.927886 -11.922212 -13.942618 5.395665 0.000000 0.000000 0.000000 -1.481722 -0.024657 17.797048 0.180777 -12.214953 0.130731 -50.625260 10.709814 -7.366125 4.232252 -46.170043 0.999116 0.000000 0.000000 0.000000 -5.433523 1.342980 17.118396 26.868433 6.672344 -3.945863 57.268090 -20.369940 23.920214 -16.587458 45.090300 -3.601490 0.000000 0.000000 0.000000 
